<svg width="1920" height="1080" xmlns="http://www.w3.org/2000/svg" xmlns:xlink="http://www.w3.org/1999/xlink">
 <metadata>TrueThis work is licensed under a &lt;a rel="license" href="http://creativecommons.org/licenses/by-nc-nd/4.0/"&gt;Creative Commons Attribution-NonCommercial-NoDerivatives 4.0 International License&lt;/a&gt;.blue green gradient linear midnight blue medium sea green 1920x1080 #191970 #3cb371 15°xmple.com</metadata>
 <title>blue green gradient linear midnight blue medium sea green 1920x1080 #191970 #3cb371 15°</title>
 <desc>blue green gradient linear midnight blue medium sea green 1920x1080 #191970 #3cb371 15°</desc>
 <style type="text/css">
  <![CDATA[.x{font:20px verdana;fill:#fff;stroke:#555;stroke-width:20px;opacity:0.35;}.o{stroke:none;opacity:0.01;}]]>
 </style>
 <defs>
  <linearGradient y2="73.817705993878%" x2="0%" y1="26.182294006122%" x1="100%" id="p1">
   <stop stop-color="#191970" offset="0%"/>
   <stop stop-color="#3cb371" offset="100%"/>
  </linearGradient>
 </defs>
 <g>
  <title>background</title>
  <rect fill="none" id="canvas_background" height="402" width="582" y="-1" x="-1"/>
 </g>
 <g>
  <title>Layer 1</title>
  <rect id="svg_1" fill="#191970" y="0" x="0" height="1080" width="1920"/>
  <rect id="svg_2" fill="url(#p1)" y="0" x="0" height="1080" width="1920"/>
  <path id="svg_3" d="m5,5l2,0l0,1l-1,0l0,1l1,0l0,1l-2,0l0,-3zm-1,-2l4,0l0,1l1,0l0,5l-1,0l0,1l-4,0l0,-1l-1,0l0,-5l1,0l0,5l4,0l0,-5l-4,0l0,-1zm7,2l1,0l0,2l1,0l0,-3l1,0l0,2l-1,0l0,1l1,0l0,2l-1,0l0,-2l-1,0l0,2l-1,0l0,-2l1,0l0,-1l-1,0l0,-1zm4,0l5,0l0,5l-1,0l0,-5l-1,0l0,4l-1,0l0,-4l-1,0l0,4l-1,0l0,-4zm6,0l3,0l-1,1l-1,0l0,3l1,0l0,-4l1,-1l0,5l-2,0l0,2l-1,0l0,-6zm4,-2l1,0l0,6l1,0l0,1l-2,0l0,-7zm3,2l3,0l-1,1l-1,0l0,1l1,0l0,-2l1,-1l0,3l-2,0l0,1l2,0l0,1l-3,0l0,-5l0,1zm4,4l1,0l0,1l-1,0l0,-1zm2,-4l3,0l0,1l-2,0l0,3l2,0l0,1l-3,0l0,-5zm4,0l3,0l0,5l-3,0l1,-1l1,0l0,-4l-1,0l0,3l-1,1l0,-4zm4,0l5,0l0,5l-1,0l0,-5l-1,0l0,4l-1,0l0,-4l-1,0l0,4l-1,0l0,-4z" class="x o"/>
  <text id="svg_4" class="x o" y="1074" x="4">© xmple.com</text>
  <a id="svg_5" xlink:href="https://www.xmple.com">
   <text id="svg_6" class="x o" y="22" x="1910" text-anchor="end">xmple.com</text>
  </a>
 </g>
</svg>